<svg xmlns="http://www.w3.org/2000/svg" xmlns:xlink="http://www.w3.org/1999/xlink" width="36.62" height="25.634" viewBox="0 0 36.62 25.634">
  <defs>
    <clipPath id="clip-path">
      <rect width="36.62" height="25.634" fill="none"/>
    </clipPath>
  </defs>
  <g id="Repeat_Grid_2" data-name="Repeat Grid 2" clip-path="url(#clip-path)">
    <g transform="translate(-4836.78 -961.183)">
      <path id="Icon_awesome-user-friends" data-name="Icon awesome-user-friends" d="M10.986,15.067A6.408,6.408,0,1,0,4.577,8.658,6.405,6.405,0,0,0,10.986,15.067ZM15.38,16.9h-.475a8.848,8.848,0,0,1-7.839,0H6.592A6.593,6.593,0,0,0,0,23.489v1.648a2.747,2.747,0,0,0,2.746,2.746H19.225a2.747,2.747,0,0,0,2.746-2.746V23.489A6.593,6.593,0,0,0,15.38,16.9Zm12.084-1.831a5.493,5.493,0,1,0-5.493-5.493A5.494,5.494,0,0,0,27.465,15.067ZM30.211,16.9h-.217a7.215,7.215,0,0,1-5.058,0h-.217a6.355,6.355,0,0,0-3.187.881,8.374,8.374,0,0,1,2.272,5.71v2.2c0,.126-.029.246-.034.366h10.1a2.747,2.747,0,0,0,2.746-2.746A6.405,6.405,0,0,0,30.211,16.9Z" transform="translate(4836.78 958.933)" fill="#faacb7"/>
    </g>
  </g>
</svg>
